<?xml version="1.0" encoding="utf-8"?>
<!-- Svg Vector Icons : http://www.onlinewebfonts.com/icon -->
<!DOCTYPE svg PUBLIC "-//W3C//DTD SVG 1.1//EN" "http://www.w3.org/Graphics/SVG/1.1/DTD/svg11.dtd">
<svg version="1.1" xmlns="http://www.w3.org/2000/svg" xmlns:xlink="http://www.w3.org/1999/xlink" x="0px" y="0px" viewBox="0 0 1000 1000" enable-background="new 0 0 1000 1000" xml:space="preserve">
<metadata> Svg Vector Icons : http://www.onlinewebfonts.com/icon </metadata>
<g><g transform="matrix(1 0 0 -1 0 1920)"><path d="M535.9,1567c-12.1,16.7-26.4,33.9-43,51.5c-16.6,17.7-31.5,32.8-44.6,45.4c-13.2,12.6-25.8,25.2-37.7,37.7c-12,12.6-21.2,24.9-27.8,36.8c-6.5,12-9.8,23.7-9.8,35c0,16.2,4.4,31.4,13.1,45.6c8.7,14.2,20.1,25.3,34.1,33.4c14,8.1,28.8,12.2,44.3,12.2c29.3,0,53.1-14,71.5-42.1c19.6,28.1,44,42.1,73.3,42.1c23.7,0,44.6-9,62.8-26.9s27.2-39.3,27.2-64.2c0-11.4-3.3-23-10-35s-15.9-24.3-27.8-36.8s-24.4-25.2-37.6-37.7c-13.2-12.6-28.1-27.7-44.6-45.4C562.7,1600.9,548.3,1583.7,535.9,1567z M362.8,1125.3c-9.7-7.5-18.5-11.3-26.3-11.3c-7.9,0-15.9,3.8-24.1,11.3L135.6,1293c-7.5,7.5-11.3,14.5-11.3,21.1c0,4.8,1.9,10.3,5.8,16.3l101.6,97.6c114.5,63.6,176.9,98.5,187.3,104.5c8.2,4.6,16.7,6.9,25.4,6.9c7.3,0,14.4-1.6,21.4-4.7c4.4-2.2,16.9-9,37.7-20.5c20.8-11.5,40.5-22.6,59.2-33.2l27.9-15.6h108.9c13.3,0,23.5-5.7,30.5-17.1c3.6-5.8,5.4-12.2,5.4-19.2c0-5.6-1.2-11-3.6-16.3l-10.5-10.2l197.8,129.2c6.8,2.2,12.5,3.9,17.1,5.1c2.9,0.7,8.7,1.1,17.4,1.1c5.6,0,13-3.8,22.3-11.3c9.3-7.5,14-15.8,14-25c0-6.8-0.1-11.9-0.4-15.2s-0.8-7.2-1.6-11.4c-0.8-4.2-2.2-7.7-4.2-10.5c-1.9-2.8-4.6-5.9-8-9.4c-3.4-3.5-7.9-7.4-13.4-11.8c-141.6-118.6-227.1-190.6-256.6-216l-7.6-6.5c-8-7-13.9-12-17.6-15.1s-8.9-6.8-15.4-11.3c-6.5-4.5-12.2-7.6-17.1-9.3s-11.1-3.5-18.9-5.4c-7.7-1.9-16.2-3.2-25.2-3.8s-19.8-0.9-32.1-0.9H409.3L362.8,1125.3z M337.8,1187l51.2,50.8c5.8,5.6,12.6,8.8,20.3,9.8H614l127.8,100.5l-78.4-27.9H388.2h-1.3c0,0-1,0.2-3.1,0.7c-2.1,0.5-3.3,1.2-3.8,2.2c-0.5,1-1.5,2.6-3.1,4.9s-2.1,5-1.5,8.2c0,5.1,1,9.2,3.1,12.3s4.1,5,6,5.4l3.3,0.7l310.7,37.7l-118,7.6l-135,73.3L280,1386.6l-84.6-71.5L337.8,1187z M209.6,975.4L10,1176.5l89.3,88.9l173.9-174.9c7-7,10.5-15.6,10.5-25.8s-3.5-18.8-10.5-25.8L209.6,975.4z"/></g></g>
</svg>